<svg width="1024" height="1024" viewBox="0 0 1024 1024" fill="none" xmlns="http://www.w3.org/2000/svg">
<path fill-rule="evenodd" clip-rule="evenodd" d="M241.225 33.2513C240.56 33.9151 240.016 118.786 240.016 221.851V409.244L371.802 541.637C444.284 614.454 504.675 674.03 506.004 674.03C508.001 674.03 508.418 641.395 508.409 485.877L508.4 297.723L376.474 164.841C303.916 91.7557 244.074 31.9764 243.492 32C242.91 32.0236 241.889 32.5858 241.225 33.2513ZM764.129 33.2586C705.952 39.8236 646.245 66.8215 605.404 105.032C564.124 143.655 537.291 194.107 526.675 253.069C523.115 272.838 522.966 280.685 522.814 455.864C522.728 556.089 523.073 638.51 523.583 639.018C524.09 639.527 525.023 636.8 525.652 632.957C528.971 612.685 536.283 586.754 542.964 571.566C552.084 550.826 553.925 547.288 563.48 532.107C597.229 478.499 648.026 439.39 711.066 418.484C729.185 412.476 763.36 405.341 783.171 403.432L788.612 402.908V217.928V32.9485L779.544 32.7454C774.557 32.6347 767.62 32.8651 764.129 33.2586ZM105.11 299.66C104.499 301.252 104 388.829 104 494.277C104 640.976 104.511 686.51 106.176 688.175C108.831 690.83 496.688 691.382 498.324 688.734C498.875 687.843 437.92 625.364 362.868 549.889L226.414 412.663L225.507 355.194L224.6 297.723L165.41 297.244C112.618 296.818 106.1 297.079 105.11 299.66ZM802.451 299.999C801.426 301.914 800.953 325.044 801.29 356.694C801.604 386.098 801.152 411.477 800.285 413.094C799.047 415.408 794.36 416.306 778.247 417.314C757.919 418.587 754.959 419.05 730.578 424.759C648.969 443.868 578.596 507.775 549.946 588.794C541.1 613.812 532.587 662.978 534.09 680.377L534.716 687.631L571.893 688.647C592.341 689.204 679.255 689.612 765.035 689.554L921 689.445V493.584V297.723L862.591 297.244C808.125 296.798 804.065 296.985 802.451 299.999ZM226.717 702.442C226.051 703.106 225.507 767.97 225.507 846.583V989.514L230.137 990.677C235.719 992.077 263.833 988.754 286.261 984.045C330.469 974.759 373.229 954.365 407.764 926.094C467.778 876.967 505.124 807.349 512.689 730.498C514.143 715.734 515.46 709.394 517.07 709.394C518.338 709.394 582.16 772.201 658.898 848.966C735.636 925.731 798.864 988.096 799.406 987.556C800.951 986.009 801.292 705.959 799.75 703.463C798.669 701.713 736.909 701.233 513.149 701.233C356.276 701.233 227.381 701.777 226.717 702.442Z" fill="white"/>
</svg>
